<svg xmlns="http://www.w3.org/2000/svg" viewBox="0 0 64 64" role="img" aria-labelledby="title desc">
  <title id="title">Codex Intercom logo</title>
  <desc id="desc">Two connected speech panels with a code prompt mark.</desc>
  <defs>
    <linearGradient id="bg" x1="10" x2="54" y1="8" y2="58" gradientUnits="userSpaceOnUse">
      <stop offset="0" stop-color="#2563eb"/>
      <stop offset="1" stop-color="#14b8a6"/>
    </linearGradient>
    <linearGradient id="panel" x1="17" x2="49" y1="18" y2="45" gradientUnits="userSpaceOnUse">
      <stop offset="0" stop-color="#ffffff"/>
      <stop offset="1" stop-color="#dbeafe"/>
    </linearGradient>
  </defs>
  <rect width="64" height="64" rx="14" fill="url(#bg)"/>
  <path d="M18 22c0-3.31 2.69-6 6-6h14c3.31 0 6 2.69 6 6v8c0 3.31-2.69 6-6 6H27.5L20 42v-6.34A6 6 0 0 1 18 31V22Z" fill="url(#panel)" opacity=".96"/>
  <path d="M27 31c0-3.31 2.69-6 6-6h7c3.31 0 6 2.69 6 6v7c0 3.31-2.69 6-6 6h-3.75L30 49v-5.08A6 6 0 0 1 27 38v-7Z" fill="#0f172a" opacity=".9"/>
  <path d="M28 25.5 24.5 29 28 32.5M35 25.5l3.5 3.5L35 32.5" fill="none" stroke="#2563eb" stroke-linecap="round" stroke-linejoin="round" stroke-width="2.8"/>
  <path d="M34 33.5h7" fill="none" stroke="#5eead4" stroke-linecap="round" stroke-width="2.6"/>
  <circle cx="20" cy="50" r="2.6" fill="#bfdbfe"/>
  <circle cx="44" cy="14" r="2.6" fill="#99f6e4"/>
  <path d="M22.4 48.9 30 43.9M42.4 15.6 37.6 18.4" fill="none" stroke="#ffffff" stroke-linecap="round" stroke-width="1.8" opacity=".72"/>
</svg>
